# xmcd
#
# Track frame offsets:
#	150
#	14881
#	35541
#	49253
#	68842
#	82826
#	96783
#	110066
#	125440
#	139166
#	154049
#	168589
#	182463
#	196249
#	211478
#	227232
#	241610
#	260151
#	276813
#
# Disc length: 3947 seconds
#
# Revision: 0
# Processed by: cddbd v1.5.1PL0 Copyright (c) Steve Scherf et al.
# Submitted via: dBpowerAMP V4.0
#
DISCID=100f6913
DTITLE=Jeanette - 19 EXITOS
DYEAR=2004
DGENRE=Blues
TTITLE0=frente a ti
TTITLE1=corazon de poeta
TTITLE2=gracias a ti
TTITLE3=cuando estoy con el 
TTITLE4=ojos en el sol
TTITLE5=viva el paso doble
TTITLE6=comienzame a vivie
TTITLE7=porque te vas
TTITLE8=reluz
TTITLE9=soy rebelde
TTITLE10=amiga mia
TTITLE11=un dia es un dia
TTITLE12=con que derecho
TTITLE13=costa blanca
TTITLE14=el muchacho de los ojos tristes
TTITLE15=sol de verano
TTITLE16=si te vas, te vas
TTITLE17=toda la noche oliendo a ti
TTITLE18=acabare llorando
EXTD=QUIEN ES? JEANNETTE ,,CONOCELA
EXTT0=
EXTT1=
EXTT2=
EXTT3=
EXTT4=
EXTT5=
EXTT6=
EXTT7=
EXTT8=
EXTT9=
EXTT10=
EXTT11=
EXTT12=
EXTT13=
EXTT14=
EXTT15=
EXTT16=
EXTT17=
EXTT18=
PLAYORDER=
